<svg xmlns="http://www.w3.org/2000/svg" width="40" height="40" viewBox="0 0 40 40" fill="none">
<path d="M39.1707 1.71452C39.2616 1.48736 39.2839 1.2385 39.2347 0.998814C39.1856 0.759123 39.0671 0.539133 38.8941 0.366117C38.7211 0.193101 38.5011 0.074667 38.2614 0.0254984C38.0217 -0.0236702 37.7729 -0.00141148 37.5457 0.0895152L1.17822 14.637C0.857943 14.7652 0.579245 14.9793 0.372798 15.2557C0.16635 15.5321 0.040158 15.8601 0.00810935 16.2036C-0.0239393 16.547 0.0393982 16.8927 0.191151 17.2025C0.342903 17.5123 0.577188 17.7743 0.868219 17.9595L13.3557 25.9045L17.1832 31.9195C17.364 32.1924 17.6446 32.3836 17.9648 32.4518C18.285 32.5201 18.6191 32.46 18.8955 32.2845C19.1718 32.109 19.3683 31.8321 19.4427 31.5132C19.5171 31.1944 19.4634 30.8592 19.2932 30.5795L15.8532 25.1745L34.5882 6.43951L29.8507 18.2845C29.7856 18.4376 29.7518 18.6021 29.7511 18.7685C29.7504 18.9348 29.7829 19.0996 29.8467 19.2532C29.9105 19.4068 30.0044 19.5461 30.1227 19.663C30.2411 19.7799 30.3816 19.872 30.5359 19.9339C30.6903 19.9958 30.8555 20.0262 31.0219 20.0235C31.1882 20.0207 31.3523 19.9848 31.5045 19.9178C31.6568 19.8508 31.7941 19.754 31.9085 19.6333C32.0229 19.5125 32.112 19.3702 32.1707 19.2145L39.1707 1.71452L39.1707 1.71452ZM32.8207 4.67201L14.0857 23.407L3.23822 16.5045L32.8207 4.67201L32.8207 4.67201Z" fill="#FFFFFF" transform="translate(0.7393 0.0005)"/>
<path d="M17.5 8.75C17.5 11.0706 16.5781 13.2962 14.9372 14.9372C13.2962 16.5781 11.0706 17.5 8.75 17.5C6.42936 17.5 4.20376 16.5781 2.56282 14.9372C0.921873 13.2962 0 11.0706 0 8.75C0 6.42936 0.921873 4.20376 2.56282 2.56282C4.20376 0.921873 6.42936 4.44089e-15 8.75 0C11.0706 0 13.2962 0.921873 14.9372 2.56282C16.5781 4.20376 17.5 6.42936 17.5 8.75L17.5 8.75ZM12.5175 4.5525C12.3767 4.4681 12.2206 4.41227 12.0582 4.3882C11.8957 4.36413 11.7302 4.37229 11.5709 4.41222C11.4117 4.45215 11.2618 4.52307 11.13 4.62092C10.9981 4.71877 10.8869 4.84164 10.8025 4.9825L7.8775 9.8575L6.51 8.49C6.27528 8.25528 5.95694 8.12342 5.625 8.12342C5.29306 8.12342 4.97472 8.25528 4.74 8.49C4.50528 8.72472 4.37342 9.04306 4.37342 9.375C4.37342 9.70694 4.50528 10.0253 4.74 10.26L6.675 12.1925C6.87641 12.3943 7.12118 12.5475 7.3907 12.6405C7.66022 12.7334 7.9474 12.7637 8.23039 12.729C8.51337 12.6943 8.78472 12.5955 9.02378 12.4402C9.26285 12.2848 9.46334 12.077 9.61 11.8325L12.9475 6.2675C13.0319 6.12667 13.0877 5.97058 13.1118 5.80817C13.1359 5.64575 13.1277 5.48018 13.0878 5.32092C13.0478 5.16166 12.9769 5.01183 12.8791 4.87998C12.7812 4.74813 12.6584 4.63685 12.5175 4.5525L12.5175 4.5525Z" fill="#FFFFFF" transform="translate(22.5 22.5)"/>
</svg>