<svg xmlns="http://www.w3.org/2000/svg" width="24" height="24" viewBox="0 0 24 24" fill="none">
<path d="M20 0L2 0C0.895431 0 5.06504e-16 0.89648 4.25729e-17 2.00105C3.06711e-17 2.02939 1.65725e-17 2.04928 0 2.05917L0 20.0592C0 21.1311 0.869976 22 1.94187 22C1.97009 22 1.98998 22 1.99999 22L20 22C20.01 22 20.0299 22 20.0581 22C21.13 22 22 21.1311 22 20.0592L22 2.05915C22 2.04925 22 2.02937 22 2.00104C22 0.896477 21.1046 1.84953e-15 20 0ZM13 20.0592L2 20.0592L2 12.0591L13 12.0591L13 20.0592ZM13 10.0591L2 10.0591L2 2.05917L13 2.05915L13 10.0591ZM20 20.0592L15 20.0592L15 2.05917L20 2.05917L20 20.0592Z" fill="#CDCDCD" transform="translate(1.002 1.1699)"/>
</svg>